<?xml version="1.0" encoding="UTF-8" standalone="no"?>
<!-- Created with Inkscape (http://www.inkscape.org/) -->

<svg
   version="1.1"
   id="svg1"
   width="812.66669"
   height="210.16"
   viewBox="0 0 812.66669 210.16"
   sodipodi:docname="logo_primary.eps"
   xmlns:inkscape="http://www.inkscape.org/namespaces/inkscape"
   xmlns:sodipodi="http://sodipodi.sourceforge.net/DTD/sodipodi-0.dtd"
   xmlns="http://www.w3.org/2000/svg"
   xmlns:svg="http://www.w3.org/2000/svg">
  <defs
     id="defs1" />
  <sodipodi:namedview
     id="namedview1"
     pagecolor="#ffffff"
     bordercolor="#000000"
     borderopacity="0.25"
     inkscape:showpageshadow="2"
     inkscape:pageopacity="0.0"
     inkscape:pagecheckerboard="0"
     inkscape:deskcolor="#d1d1d1">
    <inkscape:page
       x="0"
       y="0"
       inkscape:label="1"
       id="page1"
       width="812.66669"
       height="210.16"
       margin="0"
       bleed="0" />
  </sodipodi:namedview>
  <g
     id="g1"
     inkscape:groupmode="layer"
     inkscape:label="1">
    <g
       id="group-R5">
      <path
         id="path2"
         d="m 2138.8,1217.9 c 0,-4.6 -1.4,-8.9 -3.8,-12.4 L 1381,10.1016 c -0.1,-0.1016 -0.1,-0.20316 -0.2,-0.30082 0,0 0,-0.10156 -0.1,-0.10156 C 1376.7,3.89844 1370,0 1362.4,0 H 938.398 C 930.801,0 924,3.80078 920,9.69922 c -0.398,0.60158 -0.801,1.19918 -1.199,1.90238 -1.699,3.0976 -2.699,6.6992 -2.699,10.5976 0,3.8008 1,7.4024 2.699,10.6016 0.398,0.6992 0.801,1.3008 1.199,1.8984 L 1885,1564.6 c 0.4,0.7 0.8,1.3 1.2,1.9 4,5.89 10.8,9.7 18.4,9.7 7.5,0 14.2,-3.81 18.3,-9.6 l 212,-336.1 c 0.4,-0.61 0.8,-1.3 1.2,-2 1.7,-3.1 2.7,-6.7 2.7,-10.6"
         style="fill:#64cbc0;fill-opacity:1;fill-rule:nonzero;stroke:none"
         transform="matrix(0.13333333,0,0,-0.13333333,0,210.16)" />
      <path
         id="path3"
         d="M 2893.1,22.1992 C 2893.1,9.89844 2883.1,0 2870.9,0 h -424 c -7.6,0 -14.4,3.80078 -18.4,9.69922 -0.4,0.60158 -0.8,1.19918 -1.2,1.90238 L 1969.2,737.699 c -0.4,0.602 -0.8,1.199 -1.2,1.899 -1.7,3.101 -2.7,6.699 -2.7,10.601 0,3.797 1,7.403 2.7,10.602 0.4,0.695 0.8,1.297 1.2,1.898 L 2180,1096.9 c 0.4,0.7 0.8,1.3 1.2,1.9 4,5.9 10.8,9.7 18.4,9.7 7.5,0 14.2,-3.8 18.3,-9.6 L 2889.2,34.8008 c 0.4,-0.6016 0.8,-1.3008 1.2,-2 1.7,-3.1016 2.7,-6.6992 2.7,-10.6016"
         style="fill:#64cbc0;fill-opacity:1;fill-rule:nonzero;stroke:none"
         transform="matrix(0.13333333,0,0,-0.13333333,0,210.16)" />
      <path
         id="path4"
         d="m 1280,791.605 c 0,-4.496 -1.3,-8.695 -3.6,-12.097 -0.1,-0.098 -0.1,-0.195 -0.2,-0.297 L 1064.4,443.41 c -0.1,-0.101 -0.1,-0.199 -0.2,-0.301 0,0 0,-0.097 -0.1,-0.097 -4,-5.801 -10.7,-9.703 -18.3,-9.703 -7.6,0 -14.4,3.8 -18.4,9.703 -0.4,0.597 -0.8,1.199 -1.2,1.898 L 882.5,672.512 465.602,11.7109 c -0.403,-0.6992 -0.801,-1.4023 -1.204,-1.99996 -4,-5.80078 -10.699,-9.6992212 -18.296,-9.6992212 h -0.2 L 22.3008,0.210938 C 10,0.210938 0,10.1094 0,22.4102 0,27.0117 1.40234,31.3086 3.80078,34.8086 L 864.102,1398.91 c 4,5.9 10.699,9.8 18.398,9.8 7.699,0 14.398,-3.9 18.402,-9.8 L 1276.1,804.211 c 0.4,-0.602 0.8,-1.301 1.2,-2 1.7,-3.106 2.7,-6.703 2.7,-10.606"
         style="fill:#1e3961;fill-opacity:1;fill-rule:nonzero;stroke:none"
         transform="matrix(0.13333333,0,0,-0.13333333,0,210.16)" />
      <path
         id="path5"
         d="m 3582.31,569.07 c 129.95,0 225.73,34.508 225.73,141.821 0,107.312 -95.78,141.82 -225.73,141.82 H 3282.23 V 569.07 Z M 3778.44,7.57813 3480.28,349.41 H 3283.75 V 21.4883 c 0,-11.85939 -9.87,-21.4765812 -22.04,-21.4765812 H 3007.6 c -12.18,0 -22.05,9.6171912 -22.05,21.4765812 V 1061.28 c 0,11.86 9.87,21.48 22.05,21.48 h 597.56 c 272.63,0 484.33,-128.463 484.33,-365.936 0,-173.644 -112.71,-294.695 -280.24,-342.183 L 4113.97,35.6484 c 12.48,-13.8867 2.36,-35.6366812 -16.58,-35.6366812 h -302.16 c -6.46,0 -12.6,2.7695312 -16.79,7.5664112"
         style="fill:#20335c;fill-opacity:1;fill-rule:nonzero;stroke:none"
         transform="matrix(0.13333333,0,0,-0.13333333,0,210.16)" />
      <path
         id="path6"
         d="M 5584.75,1066.31 5584.47,26.5313 c 0,-11.8711 -9.87,-21.48052 -22.04,-21.48052 h -253.57 c -12.18,0 -22.05,9.62112 -22.05,21.48832 l 0.29,685.7619 -366.88,-485.172 h -15.23 l -366.87,485.172 -0.28,-685.7815 c 0,-11.8593 -9.87,-21.46872 -22.04,-21.46872 h -244.46 c -12.18,0 -22.05,9.62112 -22.04,21.48832 l 0.28,1039.7809 c 0,11.87 9.87,21.48 22.04,21.48 h 294.63 c 7.19,0 13.93,-3.42 18.05,-9.15 l 335.92,-467.115 338.96,467.185 c 4.14,5.69 10.85,9.08 18,9.08 h 285.53 c 12.18,0 22.05,-9.62 22.04,-21.49"
         style="fill:#20335c;fill-opacity:1;fill-rule:nonzero;stroke:none"
         transform="matrix(0.13333333,0,0,-0.13333333,0,210.16)" />
      <path
         id="path7"
         d="m 5795.49,21.5 0.28,1039.79 c 0,11.85 9.87,21.47 22.04,21.47 h 255.1 c 12.18,0 22.05,-9.62 22.05,-21.49 L 6094.67,21.4883 c 0,-11.86721 -9.87,-21.4765812 -22.04,-21.4765812 h -255.1 c -12.18,0 -22.05,9.6171912 -22.04,21.4882812"
         style="fill:#20335c;fill-opacity:1;fill-rule:nonzero;stroke:none"
         transform="matrix(0.13333333,0,0,-0.13333333,0,210.16)" />
    </g>
  </g>
</svg>
