<?xml version="1.0" encoding="UTF-8" standalone="no"?>
<!-- Created with Inkscape (http://www.inkscape.org/) -->

<svg
   version="1.1"
   id="svg1"
   width="390.06668"
   height="408.07999"
   viewBox="0 0 390.06668 408.07999"
   sodipodi:docname="logo_stacked.eps"
   xmlns:inkscape="http://www.inkscape.org/namespaces/inkscape"
   xmlns:sodipodi="http://sodipodi.sourceforge.net/DTD/sodipodi-0.dtd"
   xmlns="http://www.w3.org/2000/svg"
   xmlns:svg="http://www.w3.org/2000/svg">
  <defs
     id="defs1" />
  <sodipodi:namedview
     id="namedview1"
     pagecolor="#ffffff"
     bordercolor="#000000"
     borderopacity="0.25"
     inkscape:showpageshadow="2"
     inkscape:pageopacity="0.0"
     inkscape:pagecheckerboard="0"
     inkscape:deskcolor="#d1d1d1">
    <inkscape:page
       x="0"
       y="0"
       inkscape:label="1"
       id="page1"
       width="390.06668"
       height="408.07999"
       margin="0"
       bleed="0" />
  </sodipodi:namedview>
  <g
     id="g1"
     inkscape:groupmode="layer"
     inkscape:label="1">
    <g
       id="group-R5">
      <path
         id="path2"
         d="m 2152.23,2700 c 0,-4.63 -1.4,-8.96 -3.82,-12.48 L 1389.67,1484.61 c -0.1,-0.1 -0.1,-0.2 -0.2,-0.3 0,0 0,-0.1 -0.1,-0.1 -4.02,-5.84 -10.77,-9.76 -18.41,-9.76 H 944.293 c -7.645,0 -14.488,3.82 -18.516,9.76 -0.398,0.6 -0.804,1.21 -1.207,1.91 -1.707,3.12 -2.718,6.74 -2.718,10.67 0,3.82 1.011,7.44 2.718,10.66 0.403,0.71 0.809,1.31 1.207,1.92 l 971.063,1539.51 c 0.4,0.7 0.81,1.3 1.21,1.91 4.03,5.93 10.87,9.76 18.51,9.76 7.55,0 14.29,-3.83 18.42,-9.66 l 213.33,-338.21 c 0.4,-0.61 0.81,-1.31 1.21,-2.02 1.71,-3.11 2.71,-6.73 2.71,-10.66"
         style="fill:#63cac0;fill-opacity:1;fill-rule:nonzero;stroke:none"
         transform="matrix(0.13333333,0,0,-0.13333333,0,408.08)" />
      <path
         id="path3"
         d="m 2911.27,1496.79 c 0,-12.38 -10.06,-22.34 -22.34,-22.34 h -426.66 c -7.65,0 -14.49,3.82 -18.51,9.76 -0.41,0.6 -0.81,1.21 -1.21,1.91 l -460.98,730.66 c -0.4,0.61 -0.81,1.21 -1.21,1.92 -1.71,3.11 -2.72,6.73 -2.72,10.66 0,3.82 1.01,7.45 2.72,10.67 0.4,0.7 0.81,1.3 1.21,1.91 l 212.12,336.3 c 0.41,0.71 0.81,1.31 1.21,1.91 4.03,5.94 10.87,9.76 18.52,9.76 7.54,0 14.29,-3.82 18.41,-9.66 l 675.52,-1070.78 c 0.4,-0.61 0.81,-1.31 1.21,-2.02 1.71,-3.11 2.71,-6.74 2.71,-10.66"
         style="fill:#63cac0;fill-opacity:1;fill-rule:nonzero;stroke:none"
         transform="matrix(0.13333333,0,0,-0.13333333,0,408.08)" />
      <path
         id="path4"
         d="m 1288.04,2271.03 c 0,-4.53 -1.31,-8.75 -3.62,-12.18 -0.1,-0.1 -0.1,-0.19 -0.2,-0.3 l -213.13,-337.91 c -0.1,-0.1 -0.1,-0.2 -0.2,-0.3 0,0 0,-0.1 -0.1,-0.1 -4.03,-5.83 -10.77,-9.76 -18.42,-9.76 -7.65,0 -14.49,3.82 -18.52,9.76 -0.4,0.6 -0.8,1.21 -1.2,1.91 L 888.043,2151.18 468.527,1486.23 c -0.406,-0.7 -0.804,-1.41 -1.211,-2.01 -4.023,-5.84 -10.765,-9.76 -18.414,-9.76 h -0.199 l -426.2655,0.2 C 10.0664,1474.66 0,1484.62 0,1497 c 0,4.63 1.41406,8.95 3.82422,12.48 L 869.527,2882.15 c 4.024,5.93 10.766,9.86 18.516,9.86 7.75,0 14.488,-3.93 18.516,-9.86 l 377.561,-598.44 c 0.4,-0.6 0.8,-1.31 1.2,-2.01 1.72,-3.13 2.72,-6.75 2.72,-10.67"
         style="fill:#ffffff;fill-opacity:1;fill-rule:nonzero;stroke:none"
         transform="matrix(0.13333333,0,0,-0.13333333,0,408.08)" />
      <path
         id="path5"
         d="m 569.973,803.691 c 106.191,0 183.285,33.821 183.285,138.989 0,105.18 -77.094,139 -183.285,139 H 283.355 V 803.691 Z M 757.297,253.371 472.516,588.398 h -187.7 V 267 c 0,-11.629 -9.429,-21.051 -21.054,-21.051 H 21.0547 C 9.42578,245.949 0,255.371 0,267 v 1019.1 c 0,11.63 9.42578,21.06 21.0547,21.06 H 591.797 c 260.387,0 462.583,-125.91 462.583,-358.66 0,-170.191 -107.65,-288.828 -267.653,-335.371 l 291.033,-332.25 c 11.92,-13.617 2.26,-34.93 -15.84,-34.93 H 773.336 c -6.176,0 -12.039,2.711 -16.039,7.422"
         style="fill:#ffffff;fill-opacity:1;fill-rule:nonzero;stroke:none"
         transform="matrix(0.13333333,0,0,-0.13333333,0,408.08)" />
      <path
         id="path6"
         d="M 2475.95,1286.1 2475.68,267 c 0,-11.629 -9.42,-21.051 -21.05,-21.051 h -242.19 c -11.63,0 -21.06,9.43 -21.05,21.063 l 0.27,672.117 -350.41,-475.52 h -14.54 l -350.4,475.52 -0.27,-672.141 c -0.01,-11.617 -9.43,-21.039 -21.06,-21.039 H 1221.5 c -11.63,0 -21.06,9.43 -21.05,21.063 l 0.26,1019.098 c 0,11.62 9.43,21.05 21.05,21.05 h 281.41 c 6.87,0 13.3,-3.35 17.24,-8.97 L 1841.25,840.371 2165,1298.26 c 3.94,5.58 10.35,8.9 17.19,8.9 h 272.71 c 11.63,0 21.05,-9.43 21.05,-21.06"
         style="fill:#ffffff;fill-opacity:1;fill-rule:nonzero;stroke:none"
         transform="matrix(0.13333333,0,0,-0.13333333,0,408.08)" />
      <path
         id="path7"
         d="m 2625.36,267.012 0.27,1019.098 c 0,11.62 9.43,21.05 21.05,21.05 h 243.65 c 11.63,0 21.06,-9.43 21.06,-21.06 L 2911.12,267 c -0.01,-11.629 -9.43,-21.051 -21.05,-21.051 h -243.66 c -11.62,0 -21.05,9.43 -21.05,21.063"
         style="fill:#ffffff;fill-opacity:1;fill-rule:nonzero;stroke:none"
         transform="matrix(0.13333333,0,0,-0.13333333,0,408.08)" />
      <path
         id="path8"
         d="M 116.926,25.2891 V 3.57031 H 0.0351563 V 117.059 H 115.309 V 95.3281 H 25.8125 V 71.9805 H 100.543 V 50.2617 H 25.8125 V 25.2891 h 91.1135"
         style="fill:#ffffff;fill-opacity:1;fill-rule:nonzero;stroke:none"
         transform="matrix(0.13333333,0,0,-0.13333333,0,408.08)" />
      <path
         id="path9"
         d="M 290.32,117.059 V 3.57031 H 267.621 L 186.238,85.6016 V 3.57031 H 161.113 V 117.059 h 27.551 l 76.52,-77.8207 v 77.8207 h 25.136"
         style="fill:#ffffff;fill-opacity:1;fill-rule:nonzero;stroke:none"
         transform="matrix(0.13333333,0,0,-0.13333333,0,408.08)" />
      <path
         id="path10"
         d="M 458.211,25.2891 V 3.57031 H 341.324 V 117.059 h 115.27 V 95.3281 H 367.098 V 71.9805 h 74.73 V 50.2617 h -74.73 V 25.2891 h 91.113"
         style="fill:#ffffff;fill-opacity:1;fill-rule:nonzero;stroke:none"
         transform="matrix(0.13333333,0,0,-0.13333333,0,408.08)" />
      <path
         id="path11"
         d="m 574.426,63.5508 c 13.609,0 23.656,3.25 23.656,15.8906 0,12.6484 -10.047,15.8867 -23.656,15.8867 H 523.18 V 63.5508 Z M 596.949,3.57031 564.355,42.1602 H 523.352 V 3.57031 H 497.574 V 117.059 h 78.297 c 27.734,0 48.641,-12.809 48.641,-37.4496 0,-19.3008 -12.801,-31.2891 -31.61,-35.668 l 35.02,-40.37109 h -30.973"
         style="fill:#ffffff;fill-opacity:1;fill-rule:nonzero;stroke:none"
         transform="matrix(0.13333333,0,0,-0.13333333,0,408.08)" />
      <path
         id="path12"
         d="M 794.758,26.5898 C 783.418,11.1914 761.047,0 730.23,0 c -45.546,0 -73.265,22.3789 -73.265,60.3086 0,37.9414 27.719,60.3124 73.265,60.3124 27.891,0 47.661,-10.543 59.02,-21.5624 L 768.98,84.3008 c -9.89,9.7305 -21.386,14.2695 -38.578,14.2695 -29.664,0 -47.027,-12.9687 -47.027,-38.2617 0,-25.2891 17.844,-38.2578 47.992,-38.2578 17.031,0 30.973,3.7305 39.078,13.4492 v 11.0313 h -42.797 v 21.0781 h 67.11 V 26.5898"
         style="fill:#ffffff;fill-opacity:1;fill-rule:nonzero;stroke:none"
         transform="matrix(0.13333333,0,0,-0.13333333,0,408.08)" />
      <path
         id="path13"
         d="m 835.426,117.059 38.265,-53.1801 38.102,53.1801 h 29.336 L 886.496,42.3203 V 3.57031 H 860.547 V 42.3203 l -54.633,74.7387 h 29.512"
         style="fill:#ffffff;fill-opacity:1;fill-rule:nonzero;stroke:none"
         transform="matrix(0.13333333,0,0,-0.13333333,0,408.08)" />
      <path
         id="path14"
         d="m 937.039,15.0781 c 0,7.6211 6.332,13.6211 15.399,13.6211 8.929,0 15.246,-6 15.246,-13.6211 0,-7.78904 -6.317,-13.45701 -15.246,-13.45701 -9.067,0 -15.399,5.66797 -15.399,13.45701"
         style="fill:#ffffff;fill-opacity:1;fill-rule:nonzero;stroke:none"
         transform="matrix(0.13333333,0,0,-0.13333333,0,408.08)" />
      <path
         id="path15"
         d="m 1180.1,94.6797 h -49.61 V 3.57031 h -25.94 V 94.6797 h -49.28 V 117.059 H 1180.1 V 94.6797"
         style="fill:#ffffff;fill-opacity:1;fill-rule:nonzero;stroke:none"
         transform="matrix(0.13333333,0,0,-0.13333333,0,408.08)" />
      <path
         id="path16"
         d="m 1288.83,63.5508 c 13.61,0 23.66,3.25 23.66,15.8906 0,12.6484 -10.05,15.8867 -23.66,15.8867 h -51.24 V 63.5508 Z m 22.52,-59.98049 -32.59,38.58989 h -41 V 3.57031 h -25.78 V 117.059 h 78.29 c 27.74,0 48.65,-12.809 48.65,-37.4496 0,-19.3008 -12.8,-31.2891 -31.61,-35.668 l 35.02,-40.37109 h -30.98"
         style="fill:#ffffff;fill-opacity:1;fill-rule:nonzero;stroke:none"
         transform="matrix(0.13333333,0,0,-0.13333333,0,408.08)" />
      <path
         id="path17"
         d="m 1465.56,48.6406 -23.51,46.1992 -23.52,-46.1992 z m 10.86,-21.082 h -68.58 L 1395.68,3.57031 h -27.72 L 1428.1,117.059 h 28.37 L 1516.63,3.57031 h -28.05 l -12.16,23.98829"
         style="fill:#ffffff;fill-opacity:1;fill-rule:nonzero;stroke:none"
         transform="matrix(0.13333333,0,0,-0.13333333,0,408.08)" />
      <path
         id="path18"
         d="M 1676.5,117.059 V 3.57031 h -22.7 L 1572.41,85.6016 V 3.57031 h -25.12 V 117.059 h 27.55 l 76.53,-77.8207 v 77.8207 h 25.13"
         style="fill:#ffffff;fill-opacity:1;fill-rule:nonzero;stroke:none"
         transform="matrix(0.13333333,0,0,-0.13333333,0,408.08)" />
      <path
         id="path19"
         d="M 1846.86,37.9414 C 1846.86,15.5586 1825.63,0 1785.41,0 c -28.68,0 -52.03,8.10938 -69.38,22.8594 l 14.9,17.6719 c 13.96,-12.8008 31.96,-18.8125 55.14,-18.8125 23.02,0 34.68,4.3828 34.68,13.7812 0,9.4102 -11.66,12.0117 -37.77,14.2695 -32.41,2.7618 -62.58,9.8907 -62.58,34.211 0,23.6675 25.3,36.6405 60.31,36.6405 24.82,0 46.21,-6.16 60.64,-17.34 l -14.26,-17.9997 c -12.49,9.5585 -27.89,13.4492 -46.38,13.6171 -15.4,0.1602 -34.2,-2.5898 -34.2,-12.9687 0,-9.7305 16.21,-10.6992 38.75,-12.4805 36.15,-2.9297 61.6,-10.539 61.6,-35.5078"
         style="fill:#ffffff;fill-opacity:1;fill-rule:nonzero;stroke:none"
         transform="matrix(0.13333333,0,0,-0.13333333,0,408.08)" />
      <path
         id="path20"
         d="M 1913.48,94.6797 V 68.418 h 74.91 V 46.0391 h -74.91 V 3.57031 h -25.93 V 117.059 h 114.77 V 94.6797 h -88.84"
         style="fill:#ffffff;fill-opacity:1;fill-rule:nonzero;stroke:none"
         transform="matrix(0.13333333,0,0,-0.13333333,0,408.08)" />
      <path
         id="path21"
         d="m 2149.87,60.3086 c 0,24.3203 -17.67,37.9414 -45.72,37.9414 -28.05,0 -45.72,-13.6211 -45.72,-37.9414 0,-24.3203 17.52,-37.9297 45.72,-37.9297 28.05,0 45.72,13.6094 45.72,37.9297 z m -117.85,0 c 0,37.9414 27.87,60.3124 72.13,60.3124 44.27,0 72.15,-22.371 72.15,-60.3124 C 2176.3,22.3789 2148.42,0 2104.15,0 c -44.26,0 -72.13,22.3789 -72.13,60.3086"
         style="fill:#ffffff;fill-opacity:1;fill-rule:nonzero;stroke:none"
         transform="matrix(0.13333333,0,0,-0.13333333,0,408.08)" />
      <path
         id="path22"
         d="m 2295.73,63.5508 c 13.61,0 23.66,3.25 23.66,15.8906 0,12.6484 -10.05,15.8867 -23.66,15.8867 h -51.24 V 63.5508 Z m 22.52,-59.98049 -32.58,38.58989 h -41.01 V 3.57031 h -25.78 V 117.059 h 78.29 c 27.74,0 48.65,-12.809 48.65,-37.4496 0,-19.3008 -12.8,-31.2891 -31.61,-35.668 l 35.02,-40.37109 h -30.98"
         style="fill:#ffffff;fill-opacity:1;fill-rule:nonzero;stroke:none"
         transform="matrix(0.13333333,0,0,-0.13333333,0,408.08)" />
      <path
         id="path23"
         d="M 2540.64,117.059 V 3.57031 h -25.95 V 82.5195 l -49.77,-60.8007 h -1.29 l -49.78,60.8007 V 3.57031 h -25.12 V 117.059 h 28.2 l 47.99,-59.9887 48,59.9887 h 27.72"
         style="fill:#ffffff;fill-opacity:1;fill-rule:nonzero;stroke:none"
         transform="matrix(0.13333333,0,0,-0.13333333,0,408.08)" />
      <path
         id="path24"
         d="M 2707.01,25.2891 V 3.57031 H 2590.12 V 117.059 h 115.27 V 95.3281 H 2615.9 V 71.9805 h 74.73 V 50.2617 H 2615.9 V 25.2891 h 91.11"
         style="fill:#ffffff;fill-opacity:1;fill-rule:nonzero;stroke:none"
         transform="matrix(0.13333333,0,0,-0.13333333,0,408.08)" />
      <path
         id="path25"
         d="m 2853.68,60.3086 c 0,23.3516 -18.48,34.7031 -45.7,34.7031 h -32.44 V 25.6211 h 32.44 c 27.22,0 45.7,11.3477 45.7,34.6875 z m 26.43,0 c 0,-35.3398 -27.39,-56.73829 -70.19,-56.73829 h -60.31 V 117.059 h 60.31 c 42.8,0 70.19,-21.4106 70.19,-56.7504"
         style="fill:#ffffff;fill-opacity:1;fill-rule:nonzero;stroke:none"
         transform="matrix(0.13333333,0,0,-0.13333333,0,408.08)" />
      <path
         id="path26"
         d="m 2894.86,15.0781 c 0,7.6211 6.33,13.6211 15.4,13.6211 8.93,0 15.24,-6 15.24,-13.6211 0,-7.78904 -6.31,-13.45701 -15.24,-13.45701 -9.07,0 -15.4,5.66797 -15.4,13.45701"
         style="fill:#ffffff;fill-opacity:1;fill-rule:nonzero;stroke:none"
         transform="matrix(0.13333333,0,0,-0.13333333,0,408.08)" />
    </g>
  </g>
</svg>
