<?xml version="1.0" encoding="UTF-8" standalone="no"?>
<!-- Created with Inkscape (http://www.inkscape.org/) -->

<svg
   version="1.1"
   id="svg1"
   width="821.54669"
   height="262.82666"
   viewBox="0 0 821.54669 262.82666"
   sodipodi:docname="logo_white.eps"
   xmlns:inkscape="http://www.inkscape.org/namespaces/inkscape"
   xmlns:sodipodi="http://sodipodi.sourceforge.net/DTD/sodipodi-0.dtd"
   xmlns="http://www.w3.org/2000/svg"
   xmlns:svg="http://www.w3.org/2000/svg">
  <defs
     id="defs1" />
  <sodipodi:namedview
     id="namedview1"
     pagecolor="#ffffff"
     bordercolor="#000000"
     borderopacity="0.25"
     inkscape:showpageshadow="2"
     inkscape:pageopacity="0.0"
     inkscape:pagecheckerboard="0"
     inkscape:deskcolor="#d1d1d1">
    <inkscape:page
       x="0"
       y="0"
       inkscape:label="1"
       id="page1"
       width="821.54669"
       height="262.82666"
       margin="0"
       bleed="0" />
  </sodipodi:namedview>
  <g
     id="g1"
     inkscape:groupmode="layer"
     inkscape:label="1">
    <g
       id="group-R5">
      <path
         id="path2"
         d="m 2138.8,1612.9 c 0,-4.6 -1.4,-8.9 -3.8,-12.4 L 1381,405.102 c -0.1,-0.102 -0.1,-0.204 -0.2,-0.301 0,0 0,-0.102 -0.1,-0.102 -4,-5.801 -10.7,-9.699 -18.3,-9.699 H 938.398 c -7.597,0 -14.398,3.801 -18.398,9.699 -0.398,0.602 -0.801,1.199 -1.199,1.903 -1.699,3.097 -2.699,6.699 -2.699,10.597 0,3.801 1,7.403 2.699,10.602 0.398,0.699 0.801,1.301 1.199,1.898 L 1885,1959.6 c 0.4,0.7 0.8,1.3 1.2,1.9 4,5.89 10.8,9.7 18.4,9.7 7.5,0 14.2,-3.81 18.3,-9.6 l 212,-336.1 c 0.4,-0.61 0.8,-1.3 1.2,-2 1.7,-3.1 2.7,-6.7 2.7,-10.6"
         style="fill:#64cbc0;fill-opacity:1;fill-rule:nonzero;stroke:none"
         transform="matrix(0.13333333,0,0,-0.13333333,0,262.82667)" />
      <path
         id="path3"
         d="m 2893.1,417.199 c 0,-12.301 -10,-22.199 -22.2,-22.199 h -424 c -7.6,0 -14.4,3.801 -18.4,9.699 -0.4,0.602 -0.8,1.199 -1.2,1.903 L 1969.2,1132.7 c -0.4,0.6 -0.8,1.2 -1.2,1.9 -1.7,3.1 -2.7,6.7 -2.7,10.6 0,3.8 1,7.4 2.7,10.6 0.4,0.7 0.8,1.3 1.2,1.9 l 210.8,334.2 c 0.4,0.7 0.8,1.3 1.2,1.9 4,5.9 10.8,9.7 18.4,9.7 7.5,0 14.2,-3.8 18.3,-9.6 L 2889.2,429.801 c 0.4,-0.602 0.8,-1.301 1.2,-2 1.7,-3.102 2.7,-6.699 2.7,-10.602"
         style="fill:#64cbc0;fill-opacity:1;fill-rule:nonzero;stroke:none"
         transform="matrix(0.13333333,0,0,-0.13333333,0,262.82667)" />
      <path
         id="path4"
         d="m 1280,1186.61 c 0,-4.5 -1.3,-8.7 -3.6,-12.1 -0.1,-0.1 -0.1,-0.2 -0.2,-0.3 l -211.8,-335.8 c -0.1,-0.101 -0.1,-0.199 -0.2,-0.301 0,0 0,-0.097 -0.1,-0.097 -4,-5.801 -10.7,-9.703 -18.3,-9.703 -7.6,0 -14.4,3.8 -18.4,9.703 -0.4,0.597 -0.8,1.199 -1.2,1.898 L 882.5,1067.51 465.602,406.711 c -0.403,-0.699 -0.801,-1.402 -1.204,-2 -4,-5.801 -10.699,-9.699 -18.296,-9.699 h -0.2 L 22.3008,395.211 C 10,395.211 0,405.109 0,417.41 c 0,4.602 1.40234,8.899 3.80078,12.399 L 864.102,1793.91 c 4,5.9 10.699,9.8 18.398,9.8 7.699,0 14.398,-3.9 18.402,-9.8 l 375.198,-594.7 c 0.4,-0.6 0.8,-1.3 1.2,-2 1.7,-3.1 2.7,-6.7 2.7,-10.6"
         style="fill:#ffffff;fill-opacity:1;fill-rule:nonzero;stroke:none"
         transform="matrix(0.13333333,0,0,-0.13333333,0,262.82667)" />
      <path
         id="path5"
         d="m 3582.31,964.07 c 129.95,0 225.73,34.508 225.73,141.82 0,107.31 -95.78,141.82 -225.73,141.82 H 3282.23 V 964.07 Z M 3778.44,402.578 3480.28,744.41 H 3283.75 V 416.488 c 0,-11.859 -9.87,-21.476 -22.04,-21.476 H 3007.6 c -12.18,0 -22.05,9.617 -22.05,21.476 V 1456.28 c 0,11.86 9.87,21.48 22.05,21.48 h 597.56 c 272.63,0 484.33,-128.46 484.33,-365.94 0,-173.64 -112.71,-294.691 -280.24,-342.179 l 304.72,-338.993 c 12.48,-13.886 2.36,-35.636 -16.58,-35.636 h -302.16 c -6.46,0 -12.6,2.769 -16.79,7.566"
         style="fill:#ffffff;fill-opacity:1;fill-rule:nonzero;stroke:none"
         transform="matrix(0.13333333,0,0,-0.13333333,0,262.82667)" />
      <path
         id="path6"
         d="m 5584.75,1461.31 -0.28,-1039.779 c 0,-11.871 -9.87,-21.48 -22.04,-21.48 h -253.57 c -12.18,0 -22.05,9.621 -22.05,21.488 l 0.29,685.761 -366.88,-485.171 h -15.23 l -366.87,485.171 -0.28,-685.78 c 0,-11.86 -9.87,-21.469 -22.04,-21.469 h -244.46 c -12.18,0 -22.05,9.621 -22.04,21.488 l 0.28,1039.781 c 0,11.87 9.87,21.48 22.04,21.48 h 294.63 c 7.19,0 13.93,-3.42 18.05,-9.15 l 335.92,-467.11 338.96,467.18 c 4.14,5.69 10.85,9.08 18,9.08 h 285.53 c 12.18,0 22.05,-9.62 22.04,-21.49"
         style="fill:#ffffff;fill-opacity:1;fill-rule:nonzero;stroke:none"
         transform="matrix(0.13333333,0,0,-0.13333333,0,262.82667)" />
      <path
         id="path7"
         d="m 5795.49,416.5 0.28,1039.79 c 0,11.85 9.87,21.47 22.04,21.47 h 255.1 c 12.18,0 22.05,-9.62 22.05,-21.49 l -0.29,-1039.782 c 0,-11.867 -9.87,-21.476 -22.04,-21.476 h -255.1 c -12.18,0 -22.05,9.617 -22.04,21.488"
         style="fill:#ffffff;fill-opacity:1;fill-rule:nonzero;stroke:none"
         transform="matrix(0.13333333,0,0,-0.13333333,0,262.82667)" />
      <path
         id="path8"
         d="M 1769.49,44.0508 V 6.21875 H 1565.92 V 203.859 h 200.75 V 166.02 h -155.86 v -40.649 h 130.16 V 87.5313 H 1610.81 V 44.0508 h 158.68"
         style="fill:#ffffff;fill-opacity:1;fill-rule:nonzero;stroke:none"
         transform="matrix(0.13333333,0,0,-0.13333333,0,262.82667)" />
      <path
         id="path9"
         d="M 2036.27,203.859 V 6.21875 h -39.52 L 1855,149.078 V 6.21875 h -43.76 V 203.859 h 48 L 1992.51,68.3281 V 203.859 h 43.76"
         style="fill:#ffffff;fill-opacity:1;fill-rule:nonzero;stroke:none"
         transform="matrix(0.13333333,0,0,-0.13333333,0,262.82667)" />
      <path
         id="path10"
         d="M 2295.71,44.0508 V 6.21875 H 2092.13 V 203.859 h 200.75 V 166.02 h -155.85 v -40.649 h 130.16 V 87.5313 H 2137.03 V 44.0508 h 158.68"
         style="fill:#ffffff;fill-opacity:1;fill-rule:nonzero;stroke:none"
         transform="matrix(0.13333333,0,0,-0.13333333,0,262.82667)" />
      <path
         id="path11"
         d="m 2471.29,110.68 c 23.72,0 41.23,5.648 41.23,27.672 0,22.027 -17.51,27.668 -41.23,27.668 h -89.22 V 110.68 Z M 2510.54,6.21875 2453.79,73.4102 h -71.44 V 6.21875 h -44.9 V 203.859 h 136.38 c 48.28,0 84.7,-22.308 84.7,-65.23 0,-33.59 -22.3,-54.4884 -55.05,-62.1095 l 60.99,-70.30075 h -53.93"
         style="fill:#ffffff;fill-opacity:1;fill-rule:nonzero;stroke:none"
         transform="matrix(0.13333333,0,0,-0.13333333,0,262.82667)" />
      <path
         id="path12"
         d="M 2828.15,46.3086 C 2808.38,19.4883 2769.42,0 2715.77,0 c -79.34,0 -127.62,38.9688 -127.62,105.039 0,66.07 48.28,105.031 127.62,105.031 48.57,0 83.02,-18.351 102.78,-37.55 l -35.3,-25.7 c -17.22,16.95 -37.27,24.852 -67.19,24.852 -51.67,0 -81.89,-22.594 -81.89,-66.633 0,-44.0507 31.06,-66.6406 83.58,-66.6406 29.64,0 53.93,6.5 68.04,23.4414 v 19.1993 h -74.54 v 36.6989 h 116.9 V 46.3086"
         style="fill:#ffffff;fill-opacity:1;fill-rule:nonzero;stroke:none"
         transform="matrix(0.13333333,0,0,-0.13333333,0,262.82667)" />
      <path
         id="path13"
         d="m 2885.23,203.859 66.63,-92.609 66.35,92.609 h 51.11 L 2974.17,73.6992 V 6.21875 h -45.18 V 73.6992 l -95.15,130.1598 h 51.39"
         style="fill:#ffffff;fill-opacity:1;fill-rule:nonzero;stroke:none"
         transform="matrix(0.13333333,0,0,-0.13333333,0,262.82667)" />
      <path
         id="path14"
         d="m 3028.77,26.2617 c 0,13.2696 11.01,23.7188 26.82,23.7188 15.54,0 26.54,-10.4492 26.54,-23.7188 0,-13.5508 -11,-23.43357 -26.54,-23.43357 -15.81,0 -26.82,9.88277 -26.82,23.43357"
         style="fill:#ffffff;fill-opacity:1;fill-rule:nonzero;stroke:none"
         transform="matrix(0.13333333,0,0,-0.13333333,0,262.82667)" />
      <path
         id="path15"
         d="m 3433.05,164.898 h -86.4 V 6.21875 h -45.18 V 164.898 h -85.83 v 38.961 h 217.41 v -38.961"
         style="fill:#ffffff;fill-opacity:1;fill-rule:nonzero;stroke:none"
         transform="matrix(0.13333333,0,0,-0.13333333,0,262.82667)" />
      <path
         id="path16"
         d="m 3600.72,110.68 c 23.72,0 41.23,5.648 41.23,27.672 0,22.027 -17.51,27.668 -41.23,27.668 H 3511.5 V 110.68 Z M 3639.97,6.21875 3583.22,73.4102 h -71.44 V 6.21875 h -44.89 V 203.859 h 136.37 c 48.29,0 84.71,-22.308 84.71,-65.23 0,-33.59 -22.31,-54.4884 -55.06,-62.1095 L 3693.9,6.21875 h -53.93"
         style="fill:#ffffff;fill-opacity:1;fill-rule:nonzero;stroke:none"
         transform="matrix(0.13333333,0,0,-0.13333333,0,262.82667)" />
      <path
         id="path17"
         d="M 3876.47,84.7109 3835.53,165.18 3794.58,84.7109 Z M 3895.38,48 H 3775.95 L 3754.77,6.21875 h -48.28 L 3811.24,203.859 h 49.41 L 3965.41,6.21875 h -48.86 L 3895.38,48"
         style="fill:#ffffff;fill-opacity:1;fill-rule:nonzero;stroke:none"
         transform="matrix(0.13333333,0,0,-0.13333333,0,262.82667)" />
      <path
         id="path18"
         d="M 4210.25,203.859 V 6.21875 h -39.53 L 4028.98,149.078 V 6.21875 h -43.77 V 203.859 h 48 L 4166.48,68.3281 V 203.859 h 43.77"
         style="fill:#ffffff;fill-opacity:1;fill-rule:nonzero;stroke:none"
         transform="matrix(0.13333333,0,0,-0.13333333,0,262.82667)" />
      <path
         id="path19"
         d="M 4475.89,66.0703 C 4475.89,27.1094 4438.9,0 4368.88,0 c -49.97,0 -90.63,14.1211 -120.84,39.8203 l 25.97,30.7695 c 24.29,-22.3085 55.63,-32.75 96.01,-32.75 40.09,0 60.42,7.6211 60.42,24 0,16.379 -20.33,20.8907 -65.79,24.8399 -56.47,4.8008 -108.99,17.2303 -108.99,59.5823 0,41.218 44.05,63.808 105.03,63.808 43.21,0 80.47,-10.73 105.61,-30.211 l -24.85,-31.339 c -21.74,16.66 -48.56,23.441 -80.76,23.718 -26.81,0.282 -59.57,-4.519 -59.57,-22.59 0,-16.937 28.24,-18.636 67.48,-21.738 62.97,-5.09 107.29,-18.359 107.29,-61.8397"
         style="fill:#ffffff;fill-opacity:1;fill-rule:nonzero;stroke:none"
         transform="matrix(0.13333333,0,0,-0.13333333,0,262.82667)" />
      <path
         id="path20"
         d="m 4560.55,164.898 v -45.75 H 4691 V 80.1914 H 4560.55 V 6.21875 h -45.17 V 203.859 h 199.91 v -38.961 h -154.74"
         style="fill:#ffffff;fill-opacity:1;fill-rule:nonzero;stroke:none"
         transform="matrix(0.13333333,0,0,-0.13333333,0,262.82667)" />
      <path
         id="path21"
         d="m 4937.54,105.039 c 0,42.352 -30.77,66.07 -79.62,66.07 -48.85,0 -79.62,-23.718 -79.62,-66.07 0,-42.3593 30.49,-66.0702 79.62,-66.0702 48.85,0 79.62,23.7109 79.62,66.0702 z m -205.27,0 c 0,66.07 48.57,105.031 125.65,105.031 77.08,0 125.65,-38.961 125.65,-105.031 C 4983.57,38.9688 4935,0 4857.92,0 4780.84,0 4732.27,38.9688 4732.27,105.039"
         style="fill:#ffffff;fill-opacity:1;fill-rule:nonzero;stroke:none"
         transform="matrix(0.13333333,0,0,-0.13333333,0,262.82667)" />
      <path
         id="path22"
         d="m 5160.84,110.68 c 23.72,0 41.22,5.648 41.22,27.672 0,22.027 -17.5,27.668 -41.22,27.668 h -89.22 V 110.68 Z M 5200.09,6.21875 5143.33,73.4102 H 5071.9 V 6.21875 h -44.89 V 203.859 h 136.37 c 48.28,0 84.7,-22.308 84.7,-65.23 0,-33.59 -22.3,-54.4884 -55.06,-62.1095 l 60.99,-70.30075 h -53.92"
         style="fill:#ffffff;fill-opacity:1;fill-rule:nonzero;stroke:none"
         transform="matrix(0.13333333,0,0,-0.13333333,0,262.82667)" />
      <path
         id="path23"
         d="M 5557.5,203.859 V 6.21875 h -45.18 V 143.719 L 5425.64,37.8398 h -2.26 L 5336.7,143.719 V 6.21875 h -43.76 V 203.859 h 49.13 l 83.57,-104.4684 83.58,104.4684 h 48.28"
         style="fill:#ffffff;fill-opacity:1;fill-rule:nonzero;stroke:none"
         transform="matrix(0.13333333,0,0,-0.13333333,0,262.82667)" />
      <path
         id="path24"
         d="M 5816.94,44.0508 V 6.21875 H 5613.36 V 203.859 h 200.75 V 166.02 h -155.86 v -40.649 h 130.16 V 87.5313 H 5658.25 V 44.0508 h 158.69"
         style="fill:#ffffff;fill-opacity:1;fill-rule:nonzero;stroke:none"
         transform="matrix(0.13333333,0,0,-0.13333333,0,262.82667)" />
      <path
         id="path25"
         d="m 6039.95,105.039 c 0,40.66 -32.18,60.422 -79.62,60.422 h -56.47 V 44.6094 h 56.47 c 47.44,0 79.62,19.7695 79.62,60.4296 z m 46.03,0 c 0,-61.5507 -47.73,-98.82025 -122.27,-98.82025 H 5858.69 V 203.859 h 105.02 c 74.54,0 122.27,-37.269 122.27,-98.82"
         style="fill:#ffffff;fill-opacity:1;fill-rule:nonzero;stroke:none"
         transform="matrix(0.13333333,0,0,-0.13333333,0,262.82667)" />
      <path
         id="path26"
         d="m 6108.25,26.2617 c 0,13.2696 11.01,23.7188 26.82,23.7188 15.53,0 26.55,-10.4492 26.55,-23.7188 0,-13.5508 -11.02,-23.43357 -26.55,-23.43357 -15.81,0 -26.82,9.88277 -26.82,23.43357"
         style="fill:#ffffff;fill-opacity:1;fill-rule:nonzero;stroke:none"
         transform="matrix(0.13333333,0,0,-0.13333333,0,262.82667)" />
    </g>
  </g>
</svg>
